<?xml version="1.0" standalone="no"?>
<!DOCTYPE svg PUBLIC "-//W3C//DTD SVG 20010904//EN"
 "http://www.w3.org/TR/2001/REC-SVG-20010904/DTD/svg10.dtd">
<svg version="1.0" xmlns="http://www.w3.org/2000/svg"
 width="1492.000000pt" height="1492.000000pt" viewBox="0 0 1492.000000 1492.000000"
 preserveAspectRatio="xMidYMid meet">

<g transform="translate(0.000000,1492.000000) scale(0.100000,-0.100000)"
fill="#000000" stroke="none">
<path d="M10635 13611 c-446 -154 -772 -331 -1044 -564 -96 -83 -175 -106
-241 -72 -16 8 -58 37 -94 64 -99 75 -384 209 -650 306 -263 95 -536 162 -816
202 -178 25 -674 25 -845 0 -405 -59 -756 -168 -1110 -345 -179 -89 -265 -138
-448 -259 -811 -533 -1293 -1292 -1427 -2243 -83 -589 -27 -1155 167 -1680 47
-130 178 -394 254 -515 383 -610 954 -1106 1584 -1375 424 -182 855 -269 1470
-299 240 -12 385 -32 561 -76 555 -141 996 -463 1327 -970 180 -276 299 -576
354 -890 23 -137 23 -451 -1 -590 -110 -645 -490 -1236 -1013 -1579 -317 -208
-702 -331 -1143 -367 -575 -46 -1207 158 -1657 535 -334 279 -578 642 -704
1047 -35 112 -58 144 -110 154 -47 9 -1096 2 -1105 -7 -8 -9 16 -158 53 -328
66 -305 317 -808 575 -1155 133 -178 388 -440 573 -587 526 -417 1061 -654
1698 -750 123 -19 187 -22 477 -22 352 -1 425 4 690 50 852 146 1562 561 2085
1219 418 526 660 1088 730 1695 21 180 16 614 -9 780 -100 661 -338 1229 -712
1700 -94 119 -359 381 -483 479 -420 333 -980 601 -1491 715 -200 44 -308 56
-595 66 -306 11 -462 27 -648 66 -342 72 -680 232 -962 454 -44 35 -136 120
-205 189 -370 372 -572 789 -631 1300 -15 136 -7 475 15 596 40 217 91 375
185 570 109 226 257 437 444 631 344 358 747 568 1257 655 158 27 535 37 691
20 412 -48 805 -213 1144 -481 106 -84 289 -263 383 -375 200 -239 350 -530
427 -830 90 -352 93 -706 8 -1055 -174 -716 -711 -1317 -1409 -1575 -182 -67
-234 -88 -234 -95 0 -13 82 -39 205 -65 373 -79 724 -214 1069 -408 82 -46 92
-49 139 -44 28 4 67 17 88 31 169 112 494 423 643 616 248 320 428 659 556
1050 106 321 148 562 157 896 8 298 -12 509 -73 784 -70 310 -142 503 -360
953 -85 175 -154 322 -154 326 0 4 91 57 203 116 298 160 458 253 490 283 58
55 59 62 37 264 -29 272 -78 707 -85 754 -14 100 -72 107 -280 35z"/>
</g>
</svg>
